<svg xmlns:dc="http://purl.org/dc/elements/1.1/"
     xmlns="http://www.w3.org/2000/svg"
     xmlns:xlink="http://www.w3.org/1999/xlink"
     width="128" height="127.63449" viewBox="0 0 33.866667 33.769958">
  <title>Stylus Logo</title>
  <metadata id="license"
            xmlns:rdf="http://www.w3.org/1999/02/22-rdf-syntax-ns#"
            xmlns:dc="http://purl.org/dc/elements/1.1/"
            xmlns:cc="http://creativecommons.org/ns#">
    <rdf:RDF>
      <cc:Work rdf:about="">
        <dc:format>image/svg+xml</dc:format>
        <dc:type rdf:resource="http://purl.org/dc/dcmitype/StillImage" />
        <cc:license rdf:resource="http://creativecommons.org/licenses/by-nd/4.0/" />
      </cc:Work>
      <cc:License rdf:about="http://creativecommons.org/licenses/by-nd/4.0/">
        <cc:permits rdf:resource="http://creativecommons.org/ns#Reproduction"/>
        <cc:permits rdf:resource="http://creativecommons.org/ns#Distribution"/>
        <cc:requires rdf:resource="http://creativecommons.org/ns#Notice"/>
        <cc:requires rdf:resource="http://creativecommons.org/ns#Attribution"/>
      </cc:License>
    </rdf:RDF>
  </metadata>
  <style type="text/css">
    .background {
      fill: #00352d;
    }
    .text {
      fill: #26fefa;
    }
  </style>
  <defs>
    <linearGradient id="a">
      <stop offset="0" stop-opacity="0"/>
      <stop offset="1"/>
    </linearGradient>
    <radialGradient xlink:href="#a" id="shadow-gradient" gradientUnits="userSpaceOnUse" gradientTransform="matrix(.01072 4.49284 -4.03205 .00962 262.18037 -395.69509)" cx="97.151649" cy="41.187408" fx="97.151649" fy="41.187408" r="20.539921"/>
  </defs>
  <path id="background" class="background" d="M16.93308217 1.38463582l-10.04416524.01083606c-2.02879582.00636535-3.16362489.96991278-3.16437375 3.79246386l-.0022466 5.96268187c-.069869 4.31758743.3342157 4.93877002-2.15860387 4.9553581l-.01198183.77861475.01198183.77900265c2.49281958.01658734 2.08873487.63776918 2.15860387 4.9553581l.0022466 5.96268262c.00074886 2.82255109 1.13557793 3.78610076 3.16437375 3.79246311l10.04416524.01083606 10.0442289-.01083606c2.02880705-.00636534 3.16402478-.96991202 3.16477365-3.7924631l.00224659-5.96268262c.069869-4.31758893-.33424042-4.93877002 2.15860762-4.9553581l.01198182-.77900266-.01198182-.77861475c-2.49284804-.01658733-2.08873862-.63777067-2.15860762-4.9553581l-.0022466-5.96268187c-.00074886-2.82255108-1.13596659-3.78609851-3.16477364-3.79246386z" />
  <path id="background-shadow" transform="matrix(.74886 0 0 .74886 -55.820045 -13.958977)" d="M97.151337 20.489188l-13.412538.01447c-2.709165.0085-4.224566 1.295179-4.225566 5.06429l-.003 7.962304c-.0933 5.765517.446297 6.595017-2.882505 6.617168l-.016 1.039728.016 1.040246c3.328802.02215 2.789205.851649 2.882505 6.617168l.003 7.962305c.001 3.769111 1.516401 5.055793 4.225566 5.064289l13.412538.01447 13.412623-.01447c2.70918-.0085 4.2251-1.295178 4.2261-5.064289l.003-7.962305c.0933-5.765519-.44633-6.595017 2.88251-6.617168l.016-1.040246-.016-1.039728c-3.32884-.02215-2.78921-.851651-2.88251-6.617168l-.003-7.962304c-.001-3.769111-1.51692-5.05579-4.2261-5.06429z" fill="url(#shadow-gradient)"/>
  <path id="shape" class="text" d="M25.52637233 21.95252976c0 2.2579871-1.00343267 4.4995651-2.64027687 5.79961826-1.62539408 1.3000539-3.89178043 1.95008048-6.7991733 1.95008048-2.67846294 0-5.34456588-.81995278-7.40492107-1.82350302l1.12929647-4.56208475c2.77813747 1.1152066 8.85933678 2.86195107 10.03295026-.59870918.55278136-2.72478915-3.09957006-3.43964413-4.59863829-4.15168787-3.32456846-1.45226498-6.24314562-3.6513442-6.26940079-7.16383182C9.23361348 3.76521494 18.82931111 2.9606266 24.527328 5.1988055l-1.16189226 4.4925842c-4.06214472-1.62750738-8.37650604-1.2933059-8.5709508.91159499-.11947823 1.35481308-.26967337 1.9523705 5.5069293 4.25194801 2.91375447 1.32569201 5.39592371 2.84922263 5.22495809 7.09759706z" />
  <path id="braces" class="text" d="M6.23008595-1e-8c-1.17532613 0-2.33122748.24231213-3.35246064 1.46706403-.82654803.99126812-.73446548 2.46879678-.75733279 4.42596076-.03478472 2.97828482.05752773 6.20666397-.07004123 9.10423624 0 0-1.21073092-.00629045-2.05025301.01896124l.01355443 1.8687561-.01355443 1.8683697c.83952209.02525919 2.050253.01896124 2.050253.01896124.12757271 2.89757227.035264 6.12595142.07004124 9.10423624.0228703 1.95716474-.06921748 3.4346934.75733279 4.42596002 1.02123316 1.2247519 2.17713451 1.46745194 3.35246064 1.46745194l10.70326207-.01702168 10.70326281.01702168c1.17532689 0 2.33161765-.24270005 3.35285081-1.46745194.82654353-.99126663.73407382-2.46879528.75694412-4.42596002.03474729-2.97828482-.05713831-6.20666397.0703932-9.10423624 0 0 1.21034376.00629046 2.0498651-.01896123l-.01318-1.8683697.01318-1.86875611c-.83952134-.02525918-2.0498651-.01896124-2.0498651-.01896124-.12757644-2.89757227-.03564591-6.12595142-.0703932-9.10423624-.02284035-1.95716398.06956946-3.43469264-.75694412-4.42596076C29.96822848.24231212 28.81193772-1e-8 27.63661084-1e-8L16.93334801.01663974zm10.70326207 1.38463583l10.04422516.01083606c2.02881453.00636535 3.1638825.96991278 3.16477364 3.79246386l.0022466 5.96268262c.069869 4.31758743-.33423294 4.9387805 2.15860761 4.9553566l.01198183.77861625-.01198183.77900265c-2.49284055.01658734-2.08876857.63776918-2.15860762 4.95535885l-.0022466 5.96268037c-.00074885 2.8225511-1.1359591 3.7860768-3.16477363 3.79246461l-10.04422516.01083606-10.04422516-.01083606c-2.02881079-.00636534-3.16349758-.96991352-3.16438498-3.7924646L3.7224164 22.6189527c-.06983904-4.31758967.33422769-4.938782-2.15860837-4.95535885l-.01198931-.77900265.01198931-.77861625c2.49283606-.01658733 2.08876933-.63776917 2.15860837-4.9553566l.00232148-5.96268262c.00082375-2.82255108 1.1355742-3.7860768 3.16438498-3.79246386z" />
</svg>
